<svg width="100%" height="100%" viewBox="0 0 1074 1181" version="1.1" xmlns="http://www.w3.org/2000/svg" xmlns:xlink="http://www.w3.org/1999/xlink" xml:space="preserve" xmlns:serif="http://www.serif.com/" style="fill-rule:evenodd;clip-rule:evenodd;stroke-linejoin:round;stroke-miterlimit:2;">
    <g transform="matrix(1,0,0,1,-618.275,-839.195)">
        <g transform="matrix(-0.993788,-5.41367,6.84643,-1.2568,-5554.44,7191.14)">
            <path d="M883.901,1029.9L914.107,1094.47L853.694,1094.47L883.901,1029.9Z" style="fill:rgb(255,0,0);"/>
        </g>
        <g transform="matrix(-0.000544728,0.761288,-1,-0.000715535,2857.93,1058.75)">
            <path d="M1263.03,1165.32C918.944,1165.32 640.011,1376.93 640.011,1637.97C640.011,1899.01 918.944,2110.63 1263.03,2110.63L1263.03,1165.32Z" style="fill:rgb(8,8,8);"/>
        </g>
        <g transform="matrix(1.00722,0,0,0.979282,-4.71364,36.0868)">
            <ellipse cx="1183.95" cy="1561.43" rx="50.114" ry="18.463" style="fill:white;"/>
        </g>
        <g transform="matrix(0.554424,-0.107829,0.352801,1.81399,73.2491,-810.033)">
            <rect x="1093.5" y="978.715" width="76.414" height="428.342" style="fill:rgb(8,8,8);"/>
        </g>
    </g>
</svg>
